<?xml version="1.0" encoding="UTF-8"?><!DOCTYPE svg PUBLIC "-//W3C//DTD SVG 1.1//EN" "http://www.w3.org/Graphics/SVG/1.1/DTD/svg11.dtd"><svg xmlns="http://www.w3.org/2000/svg"><symbol id="icon-facebook" viewBox="0 0 10 19">
    <title>
        facebook
    </title>
    <path d="M9.766.157v2.946H8.014c-.64 0-1.071.134-1.295.402-.223.268-.335.67-.335 1.205v2.11h3.27l-.435 3.303H6.384v8.471H2.97v-8.47H.123V6.82H2.97V4.387c0-1.384.387-2.457 1.161-3.22C4.904.404 5.934.023 7.222.023c1.093 0 1.941.045 2.544.134z" fill-rule="evenodd"/>
</symbol><symbol id="icon-next" viewBox="0 0 477.175 477.175">
    <path d="M360.731 229.075l-225.1-225.1c-5.3-5.3-13.8-5.3-19.1 0s-5.3 13.8 0 19.1l215.5 215.5-215.5 215.5c-5.3 5.3-5.3 13.8 0 19.1 2.6 2.6 6.1 4 9.5 4 3.4 0 6.9-1.3 9.5-4l225.1-225.1c5.3-5.2 5.3-13.8.1-19z"/>
</symbol><symbol id="icon-prev" viewBox="0 0 477.2 477.2">
    <path d="M116.5 248.4L342 473c5.3 5.3 13.8 5.3 19.1 0 5.3-5.3 5.3-13.8 0-19.1l-215.9-215L360.2 23c5.3-5.3 5.3-13.8 0-19.1-2.6-2.6-6.1-4-9.5-4-3.4 0-6.9 1.3-9.5 4L116.5 229.4c-5.3 5.2-5.2 13.8 0 19z"/>
</symbol></svg>